# xmcd
#
# Track frame offsets:
#	150
#	21768
#	43338
#	65825
#	84933
#	109570
#	135825
#	151468
#	163635
#	179405
#
# Disc length: 2698 seconds
#
# Revision: 1
# Processed by: cddbd v1.5.2PL0 Copyright (c) Steve Scherf et al.
# Submitted via: EZCDAudioConverter 8.0.2.1
#
DISCID=7b0a880a
DTITLE=Kiều Nga - Vũ Khúc Yêu Thương
DYEAR=1992
DGENRE=Miscellaneous
TTITLE0=Besame Mucho
TTITLE1=Mây lang thang
TTITLE2=Tu Te Roconnaitra
TTITLE3=Khúc Nhạc Yêu Thương
TTITLE4=Buồn vương màu áo
TTITLE5=Em vẫn như xưa
TTITLE6=Người yêu thứ nhất
TTITLE7=Vũ khúc Paris
TTITLE8=Khi ta 20
TTITLE9=Tình Yyêu đắm say
EXTD=
EXTT0=
EXTT1=
EXTT2=
EXTT3=
EXTT4=
EXTT5=
EXTT6=
EXTT7=
EXTT8=
EXTT9=
PLAYORDER=
